<?xml version="1.0" standalone="no"?>
<!DOCTYPE svg PUBLIC "-//W3C//DTD SVG 20010904//EN"
 "http://www.w3.org/TR/2001/REC-SVG-20010904/DTD/svg10.dtd">
<svg version="1.0" xmlns="http://www.w3.org/2000/svg"
 width="512.000000pt" height="512.000000pt" viewBox="0 0 512.000000 512.000000"
 preserveAspectRatio="xMidYMid meet">
<metadata>
Created by potrace 1.11, written by Peter Selinger 2001-2013
</metadata>
<g transform="translate(0.000000,512.000000) scale(0.100000,-0.100000)"
fill="#000000" stroke="none">
<path d="M2360 4949 c-374 -43 -740 -206 -1025 -457 -224 -198 -413 -482 -513
-773 -73 -211 -102 -403 -102 -672 l0 -163 -81 -12 c-180 -26 -341 -144 -419
-306 -52 -108 -60 -164 -60 -398 0 -198 0 -199 25 -223 l24 -25 274 0 274 0
137 -206 138 -206 -144 -462 -143 -461 -53 -49 c-70 -65 -120 -166 -129 -258
-5 -62 -4 -68 20 -92 l26 -26 431 0 431 0 24 25 c53 52 16 205 -76 317 l-39
46 139 444 138 443 292 3 291 2 0 -438 0 -438 -46 -49 c-61 -63 -103 -153
-111 -238 -5 -61 -4 -67 20 -91 l26 -26 431 0 431 0 24 25 c57 56 10 228 -90
332 l-45 47 0 438 0 438 292 -2 291 -3 138 -443 138 -443 -42 -52 c-55 -67
-86 -142 -94 -221 -5 -60 -4 -66 20 -90 l26 -26 431 0 431 0 26 26 c24 24 25
30 20 92 -9 92 -59 193 -129 258 l-53 49 -143 461 -144 461 138 207 137 206
274 0 274 0 25 25 26 26 -4 232 c-4 219 -6 236 -29 298 -36 94 -70 147 -133
212 -89 90 -209 148 -335 163 l-61 7 0 164 c0 268 -27 446 -100 664 -132 397
-410 746 -775 976 -84 53 -294 150 -395 183 -239 77 -527 107 -770 79z m339
-159 c596 -53 1106 -402 1367 -935 124 -254 174 -496 174 -842 l0 -133 -560 0
-560 0 0 55 c0 46 -8 71 -50 155 -27 55 -50 101 -50 104 0 2 22 6 50 8 68 7
137 51 175 112 29 48 30 53 33 195 3 144 3 147 -25 201 -21 40 -43 64 -81 90
l-52 34 0 169 c0 178 -5 202 -54 255 -93 103 -264 75 -330 -55 -13 -26 -16
-65 -16 -198 l0 -165 -160 0 -160 0 0 165 c0 176 -5 200 -54 253 -93 103 -264
75 -330 -55 -13 -26 -16 -65 -16 -200 l0 -169 -52 -35 c-38 -25 -61 -50 -81
-90 -28 -53 -28 -56 -25 -200 3 -142 4 -147 33 -195 38 -61 107 -105 175 -112
28 -2 50 -6 50 -8 0 -1 -22 -49 -50 -105 -41 -84 -50 -112 -50 -156 l0 -53
-560 0 -560 0 0 138 c0 340 51 584 174 837 166 339 432 605 771 771 278 135
571 191 874 164z m-465 -656 c3 -9 6 -78 6 -155 l0 -139 -40 0 -40 0 0 139 c0
77 3 146 6 155 4 9 18 16 34 16 16 0 30 -7 34 -16z m720 0 c3 -9 6 -78 6 -155
l0 -139 -40 0 -40 0 0 139 c0 77 3 146 6 155 4 9 18 16 34 16 16 0 30 -7 34
-16z m137 -483 c28 -29 29 -32 29 -131 0 -99 -1 -102 -29 -131 l-29 -29 -502
0 -502 0 -29 29 c-28 28 -29 33 -29 125 0 102 10 138 44 154 13 7 198 11 519
11 l499 1 29 -29z m-198 -586 c37 -74 67 -146 67 -160 l0 -25 -400 0 -400 0 0
25 c0 14 30 86 67 160 l68 135 265 0 265 0 68 -135z m1644 -371 c75 -31 145
-86 186 -146 60 -88 69 -125 75 -305 l4 -163 -2241 0 -2241 0 0 129 c0 70 5
153 10 182 29 156 158 288 310 318 25 5 883 8 1945 7 l1900 -1 52 -21z m-379
-783 c-1 -5 -48 -77 -103 -160 l-100 -151 -1395 0 -1395 0 -100 151 c-55 83
-101 155 -103 160 -2 5 681 9 1598 9 917 0 1600 -4 1598 -9z m-2693 -543 c-94
-306 -228 -733 -229 -734 0 0 -69 2 -152 5 l-151 6 109 345 c59 190 115 369
124 398 l15 52 154 0 153 0 -23 -72z m1255 -328 l0 -400 -160 0 -160 0 0 400
0 400 160 0 160 0 0 -400z m1234 348 c9 -29 65 -208 124 -398 l109 -345 -151
-6 c-83 -3 -152 -5 -152 -5 -1 1 -52 163 -113 361 -62 198 -118 379 -126 403
l-14 42 154 0 154 0 15 -52z m-2728 -939 c44 -23 114 -96 114 -120 0 -5 -124
-9 -300 -9 -165 0 -300 4 -300 8 0 19 60 90 92 110 53 33 103 41 229 39 102
-3 123 -6 165 -28z m1520 0 c44 -23 114 -96 114 -120 0 -5 -124 -9 -300 -9
-165 0 -300 4 -300 8 0 19 60 90 92 110 53 33 103 41 229 39 102 -3 123 -6
165 -28z m1520 0 c44 -23 114 -96 114 -120 0 -5 -124 -9 -300 -9 -165 0 -300
4 -300 8 0 19 60 90 92 110 53 33 103 41 229 39 102 -3 123 -6 165 -28z"/>
<path d="M2160 3520 l0 -80 80 0 80 0 0 80 0 80 -80 0 -80 0 0 -80z"/>
<path d="M2800 3520 l0 -80 80 0 80 0 0 80 0 80 -80 0 -80 0 0 -80z"/>
<path d="M1412 2614 c-91 -45 -138 -130 -130 -234 6 -77 46 -144 112 -185 44
-27 58 -30 126 -30 68 0 82 3 126 30 30 19 60 49 79 79 27 44 30 58 30 126 0
68 -3 82 -30 126 -66 106 -202 145 -313 88z m163 -159 c50 -49 15 -135 -55
-135 -19 0 -40 9 -55 25 -16 15 -25 36 -25 55 0 19 9 40 25 55 15 16 36 25 55
25 19 0 40 -9 55 -25z"/>
<path d="M2452 2614 c-91 -45 -138 -130 -130 -234 6 -77 46 -144 112 -185 44
-27 58 -30 126 -30 68 0 82 3 126 30 30 19 60 49 79 79 27 44 30 58 30 126 0
68 -3 82 -30 126 -66 106 -202 145 -313 88z m163 -159 c50 -49 15 -135 -55
-135 -19 0 -40 9 -55 25 -16 15 -25 36 -25 55 0 19 9 40 25 55 15 16 36 25 55
25 19 0 40 -9 55 -25z"/>
<path d="M3492 2614 c-91 -45 -138 -130 -130 -234 6 -77 46 -144 112 -185 44
-27 58 -30 126 -30 68 0 82 3 126 30 30 19 60 49 79 79 27 44 30 58 30 126 0
68 -3 82 -30 126 -66 106 -202 145 -313 88z m163 -159 c50 -49 15 -135 -55
-135 -41 0 -80 39 -80 80 0 41 39 80 80 80 19 0 40 -9 55 -25z"/>
</g>
</svg>
